G04 (created by PCBNEW (2013-may-18)-stable) date Mon Sep 19 14:24:48 2016*
%MOIN*%
G04 Gerber Fmt 3.4, Leading zero omitted, Abs format*
%FSLAX34Y34*%
G01*
G70*
G90*
G04 APERTURE LIST*
%ADD10C,0.00590551*%
%ADD11C,0.011811*%
%ADD12C,0.005*%
%ADD13C,0.015*%
%ADD14C,0.012*%
%ADD15C,0.008*%
%ADD16C,0.006*%
G04 APERTURE END LIST*
G54D10*
G54D11*
X20584Y-20022D02*
X20641Y-20022D01*
X20697Y-20050D01*
X20725Y-20078D01*
X20753Y-20134D01*
X20781Y-20247D01*
X20781Y-20388D01*
X20753Y-20500D01*
X20725Y-20556D01*
X20697Y-20584D01*
X20641Y-20613D01*
X20584Y-20613D01*
X20528Y-20584D01*
X20500Y-20556D01*
X20472Y-20500D01*
X20444Y-20388D01*
X20444Y-20247D01*
X20472Y-20134D01*
X20500Y-20078D01*
X20528Y-20050D01*
X20584Y-20022D01*
X21062Y-20613D02*
X21175Y-20613D01*
X21231Y-20584D01*
X21259Y-20556D01*
X21316Y-20472D01*
X21344Y-20359D01*
X21344Y-20134D01*
X21316Y-20078D01*
X21287Y-20050D01*
X21231Y-20022D01*
X21119Y-20022D01*
X21062Y-20050D01*
X21034Y-20078D01*
X21006Y-20134D01*
X21006Y-20275D01*
X21034Y-20331D01*
X21062Y-20359D01*
X21119Y-20388D01*
X21231Y-20388D01*
X21287Y-20359D01*
X21316Y-20331D01*
X21344Y-20275D01*
X22019Y-19994D02*
X21512Y-20753D01*
X22525Y-20613D02*
X22187Y-20613D01*
X22356Y-20613D02*
X22356Y-20022D01*
X22300Y-20106D01*
X22244Y-20163D01*
X22187Y-20191D01*
X22806Y-20613D02*
X22919Y-20613D01*
X22975Y-20584D01*
X23003Y-20556D01*
X23059Y-20472D01*
X23087Y-20359D01*
X23087Y-20134D01*
X23059Y-20078D01*
X23031Y-20050D01*
X22975Y-20022D01*
X22862Y-20022D01*
X22806Y-20050D01*
X22778Y-20078D01*
X22750Y-20134D01*
X22750Y-20275D01*
X22778Y-20331D01*
X22806Y-20359D01*
X22862Y-20388D01*
X22975Y-20388D01*
X23031Y-20359D01*
X23059Y-20331D01*
X23087Y-20275D01*
X23762Y-19994D02*
X23256Y-20753D01*
X24268Y-20613D02*
X23931Y-20613D01*
X24100Y-20613D02*
X24100Y-20022D01*
X24043Y-20106D01*
X23987Y-20163D01*
X23931Y-20191D01*
X24775Y-20022D02*
X24662Y-20022D01*
X24606Y-20050D01*
X24578Y-20078D01*
X24521Y-20163D01*
X24493Y-20275D01*
X24493Y-20500D01*
X24521Y-20556D01*
X24550Y-20584D01*
X24606Y-20613D01*
X24718Y-20613D01*
X24775Y-20584D01*
X24803Y-20556D01*
X24831Y-20500D01*
X24831Y-20359D01*
X24803Y-20303D01*
X24775Y-20275D01*
X24718Y-20247D01*
X24606Y-20247D01*
X24550Y-20275D01*
X24521Y-20303D01*
X24493Y-20359D01*
X8731Y-17553D02*
X9181Y-17553D01*
X9462Y-17778D02*
X9462Y-17187D01*
X9603Y-17187D01*
X9687Y-17215D01*
X9744Y-17272D01*
X9772Y-17328D01*
X9800Y-17440D01*
X9800Y-17525D01*
X9772Y-17637D01*
X9744Y-17694D01*
X9687Y-17750D01*
X9603Y-17778D01*
X9462Y-17778D01*
X10390Y-17778D02*
X10194Y-17497D01*
X10053Y-17778D02*
X10053Y-17187D01*
X10278Y-17187D01*
X10334Y-17215D01*
X10362Y-17244D01*
X10390Y-17300D01*
X10390Y-17384D01*
X10362Y-17440D01*
X10334Y-17469D01*
X10278Y-17497D01*
X10053Y-17497D01*
G54D12*
X22384Y-18972D02*
X23284Y-18972D01*
X23284Y-18972D02*
X23284Y-18322D01*
X22384Y-17622D02*
X22384Y-16972D01*
X22384Y-16972D02*
X23284Y-16972D01*
X23284Y-16972D02*
X23284Y-17622D01*
X22384Y-18322D02*
X22384Y-18972D01*
X21946Y-16992D02*
X21046Y-16992D01*
X21046Y-16992D02*
X21046Y-17642D01*
X21946Y-18342D02*
X21946Y-18992D01*
X21946Y-18992D02*
X21046Y-18992D01*
X21046Y-18992D02*
X21046Y-18342D01*
X21946Y-17642D02*
X21946Y-16992D01*
G54D13*
X8897Y-19763D02*
X8897Y-22795D01*
X8503Y-19763D02*
X8503Y-22795D01*
X8503Y-22795D02*
X12125Y-22795D01*
X12125Y-22795D02*
X12125Y-19763D01*
X12125Y-19763D02*
X8503Y-19763D01*
G54D14*
X18485Y-19939D02*
X18485Y-23879D01*
X18485Y-23879D02*
X14545Y-23879D01*
X14545Y-20129D02*
X14545Y-23879D01*
X14735Y-19939D02*
X18485Y-19939D01*
X14545Y-20129D02*
X14735Y-19939D01*
G54D15*
X15265Y-20409D02*
G75*
G03X15265Y-20409I-250J0D01*
G74*
G01*
G54D10*
X12545Y-25472D02*
G75*
G03X12545Y-25472I-577J0D01*
G74*
G01*
G54D16*
X11500Y-14775D02*
X11500Y-15775D01*
X11500Y-15775D02*
X8500Y-15775D01*
X8500Y-15775D02*
X8500Y-14775D01*
X8500Y-14775D02*
X11500Y-14775D01*
X10500Y-15775D02*
X10500Y-14775D01*
X24885Y-14775D02*
X24885Y-15775D01*
X24885Y-15775D02*
X21885Y-15775D01*
X21885Y-15775D02*
X21885Y-14775D01*
X21885Y-14775D02*
X24885Y-14775D01*
X23885Y-15775D02*
X23885Y-14775D01*
X24850Y-18992D02*
X23850Y-18992D01*
X23850Y-18992D02*
X23850Y-16992D01*
X23850Y-16992D02*
X24850Y-16992D01*
X24850Y-16992D02*
X24850Y-18992D01*
G54D10*
X20279Y-14814D02*
X19439Y-14804D01*
X19309Y-14844D02*
X20259Y-14844D01*
X20259Y-14844D02*
X20259Y-15804D01*
X20259Y-15804D02*
X19289Y-15804D01*
X19289Y-15804D02*
X19289Y-15784D01*
X19289Y-15784D02*
X20259Y-15784D01*
X19299Y-14784D02*
X20302Y-14782D01*
X20302Y-14782D02*
X20299Y-15834D01*
X20299Y-15834D02*
X20299Y-15844D01*
X20299Y-15844D02*
X19289Y-15844D01*
G54D14*
X13299Y-15814D02*
X13299Y-14814D01*
X13299Y-14814D02*
X19299Y-14814D01*
X19299Y-15814D02*
X13299Y-15814D01*
X14299Y-15814D02*
X14299Y-14814D01*
G54D10*
X13283Y-18984D02*
X14123Y-18994D01*
X14253Y-18954D02*
X13303Y-18954D01*
X13303Y-18954D02*
X13303Y-17994D01*
X13303Y-17994D02*
X14273Y-17994D01*
X14273Y-17994D02*
X14273Y-18014D01*
X14273Y-18014D02*
X13303Y-18014D01*
X14263Y-19014D02*
X13260Y-19016D01*
X13260Y-19016D02*
X13263Y-17964D01*
X13263Y-17964D02*
X13263Y-17954D01*
X13263Y-17954D02*
X14273Y-17954D01*
G54D14*
X20263Y-17984D02*
X20263Y-18984D01*
X20263Y-18984D02*
X14263Y-18984D01*
X14263Y-17984D02*
X20263Y-17984D01*
X19263Y-17984D02*
X19263Y-18984D01*
G54D10*
X22233Y-21831D02*
X20913Y-21831D01*
X20913Y-21831D02*
X20913Y-26791D01*
X20913Y-26791D02*
X24873Y-26791D01*
X24873Y-26791D02*
X24873Y-21831D01*
X24873Y-21831D02*
X23553Y-21831D01*
G54D12*
X22956Y-18022D02*
X22813Y-18122D01*
X22956Y-18193D02*
X22656Y-18193D01*
X22656Y-18079D01*
X22670Y-18051D01*
X22684Y-18036D01*
X22713Y-18022D01*
X22756Y-18022D01*
X22784Y-18036D01*
X22798Y-18051D01*
X22813Y-18079D01*
X22813Y-18193D01*
X22656Y-17751D02*
X22656Y-17893D01*
X22798Y-17908D01*
X22784Y-17893D01*
X22770Y-17865D01*
X22770Y-17793D01*
X22784Y-17765D01*
X22798Y-17751D01*
X22827Y-17736D01*
X22898Y-17736D01*
X22927Y-17751D01*
X22941Y-17765D01*
X22956Y-17793D01*
X22956Y-17865D01*
X22941Y-17893D01*
X22927Y-17908D01*
X21617Y-18042D02*
X21474Y-18142D01*
X21617Y-18213D02*
X21317Y-18213D01*
X21317Y-18099D01*
X21331Y-18070D01*
X21346Y-18056D01*
X21374Y-18042D01*
X21417Y-18042D01*
X21446Y-18056D01*
X21460Y-18070D01*
X21474Y-18099D01*
X21474Y-18213D01*
X21317Y-17784D02*
X21317Y-17842D01*
X21331Y-17870D01*
X21346Y-17884D01*
X21388Y-17913D01*
X21446Y-17927D01*
X21560Y-17927D01*
X21588Y-17913D01*
X21603Y-17899D01*
X21617Y-17870D01*
X21617Y-17813D01*
X21603Y-17784D01*
X21588Y-17770D01*
X21560Y-17756D01*
X21488Y-17756D01*
X21460Y-17770D01*
X21446Y-17784D01*
X21431Y-17813D01*
X21431Y-17870D01*
X21446Y-17899D01*
X21460Y-17913D01*
X21488Y-17927D01*
G54D10*
X15606Y-24154D02*
X15868Y-24548D01*
X15868Y-24154D02*
X15606Y-24548D01*
X16225Y-24548D02*
X16000Y-24548D01*
X16112Y-24548D02*
X16112Y-24154D01*
X16075Y-24210D01*
X16037Y-24248D01*
X16000Y-24267D01*
X17527Y-25159D02*
X17789Y-25553D01*
X17789Y-25159D02*
X17527Y-25553D01*
X17883Y-25159D02*
X18108Y-25159D01*
X17995Y-25553D02*
X17995Y-25159D01*
X18220Y-25440D02*
X18408Y-25440D01*
X18183Y-25553D02*
X18314Y-25159D01*
X18445Y-25553D01*
X18764Y-25553D02*
X18577Y-25553D01*
X18577Y-25159D01*
X19401Y-25553D02*
X19176Y-25553D01*
X19289Y-25553D02*
X19289Y-25159D01*
X19251Y-25215D01*
X19214Y-25253D01*
X19176Y-25271D01*
X19739Y-25159D02*
X19664Y-25159D01*
X19626Y-25178D01*
X19608Y-25196D01*
X19570Y-25253D01*
X19551Y-25328D01*
X19551Y-25478D01*
X19570Y-25515D01*
X19589Y-25534D01*
X19626Y-25553D01*
X19701Y-25553D01*
X19739Y-25534D01*
X19758Y-25515D01*
X19776Y-25478D01*
X19776Y-25384D01*
X19758Y-25346D01*
X19739Y-25328D01*
X19701Y-25309D01*
X19626Y-25309D01*
X19589Y-25328D01*
X19570Y-25346D01*
X19551Y-25384D01*
X19945Y-25553D02*
X19945Y-25159D01*
X20076Y-25440D01*
X20208Y-25159D01*
X20208Y-25553D01*
X20395Y-25553D02*
X20395Y-25159D01*
X20395Y-25346D02*
X20620Y-25346D01*
X20620Y-25553D02*
X20620Y-25159D01*
X20770Y-25290D02*
X20976Y-25290D01*
X20770Y-25553D01*
X20976Y-25553D01*
G54D15*
X10124Y-24060D02*
X10105Y-24079D01*
X10048Y-24098D01*
X10010Y-24098D01*
X9953Y-24079D01*
X9914Y-24041D01*
X9895Y-24003D01*
X9876Y-23927D01*
X9876Y-23870D01*
X9895Y-23794D01*
X9914Y-23756D01*
X9953Y-23717D01*
X10010Y-23698D01*
X10048Y-23698D01*
X10105Y-23717D01*
X10124Y-23737D01*
X10372Y-23698D02*
X10448Y-23698D01*
X10486Y-23717D01*
X10524Y-23756D01*
X10543Y-23832D01*
X10543Y-23965D01*
X10524Y-24041D01*
X10486Y-24079D01*
X10448Y-24098D01*
X10372Y-24098D01*
X10334Y-24079D01*
X10295Y-24041D01*
X10276Y-23965D01*
X10276Y-23832D01*
X10295Y-23756D01*
X10334Y-23717D01*
X10372Y-23698D01*
X10714Y-24098D02*
X10714Y-23698D01*
X10943Y-24098D01*
X10943Y-23698D01*
X11114Y-23737D02*
X11134Y-23717D01*
X11172Y-23698D01*
X11267Y-23698D01*
X11305Y-23717D01*
X11324Y-23737D01*
X11343Y-23775D01*
X11343Y-23813D01*
X11324Y-23870D01*
X11095Y-24098D01*
X11343Y-24098D01*
X16210Y-20802D02*
X16210Y-21288D01*
X16230Y-21345D01*
X16249Y-21373D01*
X16287Y-21402D01*
X16363Y-21402D01*
X16401Y-21373D01*
X16420Y-21345D01*
X16439Y-21288D01*
X16439Y-20802D01*
X16839Y-21402D02*
X16610Y-21402D01*
X16725Y-21402D02*
X16725Y-20802D01*
X16687Y-20888D01*
X16649Y-20945D01*
X16610Y-20973D01*
X14077Y-22730D02*
X14268Y-22730D01*
X14039Y-22902D02*
X14172Y-22302D01*
X14306Y-22902D01*
X14382Y-22302D02*
X14610Y-22302D01*
X14496Y-22902D02*
X14496Y-22302D01*
X14744Y-22902D02*
X14744Y-22302D01*
X14877Y-22730D01*
X15010Y-22302D01*
X15010Y-22902D01*
X15201Y-22588D02*
X15334Y-22588D01*
X15391Y-22902D02*
X15201Y-22902D01*
X15201Y-22302D01*
X15391Y-22302D01*
X15772Y-22330D02*
X15734Y-22302D01*
X15677Y-22302D01*
X15620Y-22330D01*
X15582Y-22388D01*
X15563Y-22445D01*
X15544Y-22559D01*
X15544Y-22645D01*
X15563Y-22759D01*
X15582Y-22816D01*
X15620Y-22873D01*
X15677Y-22902D01*
X15715Y-22902D01*
X15772Y-22873D01*
X15791Y-22845D01*
X15791Y-22645D01*
X15715Y-22645D01*
X15944Y-22730D02*
X16134Y-22730D01*
X15906Y-22902D02*
X16039Y-22302D01*
X16172Y-22902D01*
X16268Y-22302D02*
X16515Y-22302D01*
X16382Y-22530D01*
X16439Y-22530D01*
X16477Y-22559D01*
X16496Y-22588D01*
X16515Y-22645D01*
X16515Y-22788D01*
X16496Y-22845D01*
X16477Y-22873D01*
X16439Y-22902D01*
X16325Y-22902D01*
X16287Y-22873D01*
X16268Y-22845D01*
X16668Y-22359D02*
X16687Y-22330D01*
X16725Y-22302D01*
X16820Y-22302D01*
X16858Y-22330D01*
X16877Y-22359D01*
X16896Y-22416D01*
X16896Y-22473D01*
X16877Y-22559D01*
X16649Y-22902D01*
X16896Y-22902D01*
X17068Y-22302D02*
X17068Y-22788D01*
X17087Y-22845D01*
X17106Y-22873D01*
X17144Y-22902D01*
X17220Y-22902D01*
X17258Y-22873D01*
X17277Y-22845D01*
X17296Y-22788D01*
X17296Y-22302D01*
X17658Y-22502D02*
X17658Y-22902D01*
X17563Y-22273D02*
X17468Y-22702D01*
X17715Y-22702D01*
X17868Y-22673D02*
X18172Y-22673D01*
X18344Y-22730D02*
X18534Y-22730D01*
X18306Y-22902D02*
X18439Y-22302D01*
X18572Y-22902D01*
X18706Y-22302D02*
X18706Y-22788D01*
X18725Y-22845D01*
X18744Y-22873D01*
X18782Y-22902D01*
X18858Y-22902D01*
X18896Y-22873D01*
X18915Y-22845D01*
X18934Y-22788D01*
X18934Y-22302D01*
G54D10*
X11916Y-24215D02*
X11972Y-24234D01*
X12065Y-24234D01*
X12103Y-24215D01*
X12122Y-24196D01*
X12140Y-24159D01*
X12140Y-24121D01*
X12122Y-24084D01*
X12103Y-24065D01*
X12065Y-24046D01*
X11991Y-24027D01*
X11953Y-24009D01*
X11934Y-23990D01*
X11916Y-23952D01*
X11916Y-23915D01*
X11934Y-23877D01*
X11953Y-23859D01*
X11991Y-23840D01*
X12084Y-23840D01*
X12140Y-23859D01*
X12272Y-23840D02*
X12365Y-24234D01*
X12440Y-23952D01*
X12515Y-24234D01*
X12609Y-23840D01*
X12965Y-24234D02*
X12740Y-24234D01*
X12853Y-24234D02*
X12853Y-23840D01*
X12815Y-23896D01*
X12778Y-23934D01*
X12740Y-23952D01*
X9627Y-26474D02*
X9234Y-26474D01*
X9515Y-26343D01*
X9234Y-26212D01*
X9627Y-26212D01*
X9590Y-25799D02*
X9609Y-25818D01*
X9627Y-25874D01*
X9627Y-25912D01*
X9609Y-25968D01*
X9571Y-26005D01*
X9534Y-26024D01*
X9459Y-26043D01*
X9402Y-26043D01*
X9327Y-26024D01*
X9290Y-26005D01*
X9252Y-25968D01*
X9234Y-25912D01*
X9234Y-25874D01*
X9252Y-25818D01*
X9271Y-25799D01*
X9234Y-25630D02*
X9552Y-25630D01*
X9590Y-25612D01*
X9609Y-25593D01*
X9627Y-25555D01*
X9627Y-25480D01*
X9609Y-25443D01*
X9590Y-25424D01*
X9552Y-25405D01*
X9234Y-25405D01*
X9665Y-25312D02*
X9665Y-25012D01*
X9627Y-24693D02*
X9440Y-24824D01*
X9627Y-24918D02*
X9234Y-24918D01*
X9234Y-24768D01*
X9252Y-24730D01*
X9271Y-24712D01*
X9309Y-24693D01*
X9365Y-24693D01*
X9402Y-24712D01*
X9421Y-24730D01*
X9440Y-24768D01*
X9440Y-24918D01*
X9609Y-24543D02*
X9627Y-24487D01*
X9627Y-24393D01*
X9609Y-24356D01*
X9590Y-24337D01*
X9552Y-24318D01*
X9515Y-24318D01*
X9477Y-24337D01*
X9459Y-24356D01*
X9440Y-24393D01*
X9421Y-24468D01*
X9402Y-24505D01*
X9384Y-24524D01*
X9346Y-24543D01*
X9309Y-24543D01*
X9271Y-24524D01*
X9252Y-24505D01*
X9234Y-24468D01*
X9234Y-24374D01*
X9252Y-24318D01*
X9234Y-24206D02*
X9234Y-23981D01*
X9627Y-24093D02*
X9234Y-24093D01*
G54D16*
X9604Y-16287D02*
X9604Y-15887D01*
X9833Y-16287D02*
X9661Y-16058D01*
X9833Y-15887D02*
X9604Y-16116D01*
X10214Y-16287D02*
X9985Y-16287D01*
X10100Y-16287D02*
X10100Y-15887D01*
X10061Y-15944D01*
X10023Y-15982D01*
X9985Y-16001D01*
X22990Y-16287D02*
X22990Y-15887D01*
X23219Y-16287D02*
X23047Y-16058D01*
X23219Y-15887D02*
X22990Y-16116D01*
X23371Y-15925D02*
X23390Y-15906D01*
X23428Y-15887D01*
X23523Y-15887D01*
X23562Y-15906D01*
X23581Y-15925D01*
X23600Y-15963D01*
X23600Y-16001D01*
X23581Y-16058D01*
X23352Y-16287D01*
X23600Y-16287D01*
X23721Y-18213D02*
X23421Y-18213D01*
X23421Y-18099D01*
X23436Y-18070D01*
X23450Y-18056D01*
X23478Y-18042D01*
X23521Y-18042D01*
X23550Y-18056D01*
X23564Y-18070D01*
X23578Y-18099D01*
X23578Y-18213D01*
X23721Y-17756D02*
X23721Y-17927D01*
X23721Y-17842D02*
X23421Y-17842D01*
X23464Y-17870D01*
X23493Y-17899D01*
X23507Y-17927D01*
G54D15*
X13543Y-16480D02*
X13543Y-16080D01*
X13695Y-16080D01*
X13733Y-16099D01*
X13752Y-16118D01*
X13771Y-16156D01*
X13771Y-16214D01*
X13752Y-16252D01*
X13733Y-16271D01*
X13695Y-16290D01*
X13543Y-16290D01*
X13905Y-16080D02*
X14152Y-16080D01*
X14019Y-16233D01*
X14076Y-16233D01*
X14114Y-16252D01*
X14133Y-16271D01*
X14152Y-16309D01*
X14152Y-16404D01*
X14133Y-16442D01*
X14114Y-16461D01*
X14076Y-16480D01*
X13962Y-16480D01*
X13924Y-16461D01*
X13905Y-16442D01*
X16968Y-19496D02*
X16968Y-19096D01*
X17120Y-19096D01*
X17159Y-19115D01*
X17178Y-19134D01*
X17197Y-19172D01*
X17197Y-19229D01*
X17178Y-19267D01*
X17159Y-19286D01*
X17120Y-19305D01*
X16968Y-19305D01*
X17349Y-19134D02*
X17368Y-19115D01*
X17406Y-19096D01*
X17501Y-19096D01*
X17539Y-19115D01*
X17559Y-19134D01*
X17578Y-19172D01*
X17578Y-19210D01*
X17559Y-19267D01*
X17330Y-19496D01*
X17578Y-19496D01*
G54D10*
X19797Y-23862D02*
X19778Y-23880D01*
X19722Y-23899D01*
X19685Y-23899D01*
X19628Y-23880D01*
X19591Y-23843D01*
X19572Y-23805D01*
X19553Y-23730D01*
X19553Y-23674D01*
X19572Y-23599D01*
X19591Y-23562D01*
X19628Y-23524D01*
X19685Y-23505D01*
X19722Y-23505D01*
X19778Y-23524D01*
X19797Y-23543D01*
X20041Y-23505D02*
X20116Y-23505D01*
X20153Y-23524D01*
X20191Y-23562D01*
X20209Y-23637D01*
X20209Y-23768D01*
X20191Y-23843D01*
X20153Y-23880D01*
X20116Y-23899D01*
X20041Y-23899D01*
X20003Y-23880D01*
X19966Y-23843D01*
X19947Y-23768D01*
X19947Y-23637D01*
X19966Y-23562D01*
X20003Y-23524D01*
X20041Y-23505D01*
X20378Y-23899D02*
X20378Y-23505D01*
X20603Y-23899D01*
X20603Y-23505D01*
X20997Y-23899D02*
X20772Y-23899D01*
X20884Y-23899D02*
X20884Y-23505D01*
X20847Y-23562D01*
X20809Y-23599D01*
X20772Y-23618D01*
X20407Y-21483D02*
X20595Y-21483D01*
X20370Y-21596D02*
X20501Y-21202D01*
X20632Y-21596D01*
X20707Y-21202D02*
X20838Y-21596D01*
X20970Y-21202D01*
X21326Y-21596D02*
X21195Y-21408D01*
X21101Y-21596D02*
X21101Y-21202D01*
X21251Y-21202D01*
X21288Y-21221D01*
X21307Y-21240D01*
X21326Y-21277D01*
X21326Y-21333D01*
X21307Y-21371D01*
X21288Y-21390D01*
X21251Y-21408D01*
X21101Y-21408D01*
X21495Y-21446D02*
X21795Y-21446D01*
X21982Y-21596D02*
X21982Y-21202D01*
X22151Y-21577D02*
X22207Y-21596D01*
X22301Y-21596D01*
X22338Y-21577D01*
X22357Y-21558D01*
X22376Y-21521D01*
X22376Y-21483D01*
X22357Y-21446D01*
X22338Y-21427D01*
X22301Y-21408D01*
X22226Y-21390D01*
X22188Y-21371D01*
X22170Y-21352D01*
X22151Y-21315D01*
X22151Y-21277D01*
X22170Y-21240D01*
X22188Y-21221D01*
X22226Y-21202D01*
X22320Y-21202D01*
X22376Y-21221D01*
X22544Y-21596D02*
X22544Y-21202D01*
X22694Y-21202D01*
X22732Y-21221D01*
X22751Y-21240D01*
X22769Y-21277D01*
X22769Y-21333D01*
X22751Y-21371D01*
X22732Y-21390D01*
X22694Y-21408D01*
X22544Y-21408D01*
X22938Y-21446D02*
X23238Y-21446D01*
X23594Y-21202D02*
X23519Y-21202D01*
X23482Y-21221D01*
X23463Y-21240D01*
X23426Y-21296D01*
X23407Y-21371D01*
X23407Y-21521D01*
X23426Y-21558D01*
X23444Y-21577D01*
X23482Y-21596D01*
X23557Y-21596D01*
X23594Y-21577D01*
X23613Y-21558D01*
X23632Y-21521D01*
X23632Y-21427D01*
X23613Y-21390D01*
X23594Y-21371D01*
X23557Y-21352D01*
X23482Y-21352D01*
X23444Y-21371D01*
X23426Y-21390D01*
X23407Y-21427D01*
X23801Y-21446D02*
X24101Y-21446D01*
X24288Y-21596D02*
X24288Y-21202D01*
X24382Y-21202D01*
X24438Y-21221D01*
X24476Y-21258D01*
X24494Y-21296D01*
X24513Y-21371D01*
X24513Y-21427D01*
X24494Y-21502D01*
X24476Y-21540D01*
X24438Y-21577D01*
X24382Y-21596D01*
X24288Y-21596D01*
X24907Y-21596D02*
X24775Y-21408D01*
X24682Y-21596D02*
X24682Y-21202D01*
X24832Y-21202D01*
X24869Y-21221D01*
X24888Y-21240D01*
X24907Y-21277D01*
X24907Y-21333D01*
X24888Y-21371D01*
X24869Y-21390D01*
X24832Y-21408D01*
X24682Y-21408D01*
M02*
