G04 (created by PCBNEW (2013-may-18)-stable) date Mon Sep 19 14:24:48 2016*
%MOIN*%
G04 Gerber Fmt 3.4, Leading zero omitted, Abs format*
%FSLAX34Y34*%
G01*
G70*
G90*
G04 APERTURE LIST*
%ADD10C,0.00590551*%
%ADD11R,0.06X0.08*%
%ADD12R,0.08X0.06*%
%ADD13R,0.06X0.06*%
%ADD14C,0.06*%
%ADD15C,0.035*%
%ADD16C,0.01*%
G04 APERTURE END LIST*
G54D10*
G54D11*
X16535Y-21771D03*
X17835Y-21771D03*
X16535Y-23169D03*
X17835Y-23169D03*
G54D12*
X16771Y-26181D03*
X16771Y-24881D03*
X15059Y-26161D03*
X15059Y-24861D03*
G54D11*
X11968Y-23248D03*
X13268Y-23248D03*
G54D12*
X13228Y-24901D03*
X13228Y-26201D03*
G54D11*
X17835Y-20354D03*
X16535Y-20354D03*
G54D13*
X11000Y-15275D03*
G54D14*
X10000Y-15275D03*
X9000Y-15275D03*
G54D13*
X24385Y-15275D03*
G54D14*
X23385Y-15275D03*
X22385Y-15275D03*
G54D13*
X24350Y-18492D03*
G54D14*
X24350Y-17492D03*
G54D13*
X13799Y-15314D03*
G54D14*
X14799Y-15314D03*
X15799Y-15314D03*
X16799Y-15314D03*
X17799Y-15314D03*
X18799Y-15314D03*
X19799Y-15314D03*
G54D13*
X19763Y-18484D03*
G54D14*
X18763Y-18484D03*
X17763Y-18484D03*
X16763Y-18484D03*
X15763Y-18484D03*
X14763Y-18484D03*
X13763Y-18484D03*
G54D15*
X19468Y-24803D03*
X12480Y-26318D03*
X14429Y-17618D03*
X17047Y-22460D03*
X17224Y-21830D03*
X21220Y-19625D03*
X15551Y-20354D03*
X20472Y-16437D03*
X17224Y-16220D03*
X15177Y-17381D03*
X20393Y-17381D03*
X22224Y-18011D03*
X9921Y-20669D03*
X14311Y-25492D03*
X13149Y-25531D03*
X12539Y-22381D03*
X17578Y-25728D03*
X15944Y-26181D03*
X15964Y-25137D03*
X22677Y-21555D03*
X14960Y-21909D03*
X17204Y-21141D03*
X13484Y-21968D03*
X23897Y-24271D03*
X15196Y-23425D03*
X17696Y-24822D03*
X22972Y-24232D03*
X15157Y-22834D03*
X24507Y-24291D03*
X16102Y-16102D03*
X19507Y-22696D03*
X15196Y-21515D03*
X18661Y-19606D03*
X17874Y-22500D03*
X13661Y-20334D03*
X13641Y-22460D03*
G54D16*
X19488Y-24566D02*
X19488Y-24783D01*
X14153Y-26201D02*
X14330Y-26023D01*
X14330Y-26023D02*
X14330Y-25944D01*
X14330Y-25944D02*
X14783Y-25492D01*
X14783Y-25492D02*
X17224Y-25492D01*
X17224Y-25492D02*
X17500Y-25216D01*
X17500Y-25216D02*
X18346Y-25216D01*
X18346Y-25216D02*
X18996Y-24566D01*
X18996Y-24566D02*
X19488Y-24566D01*
X13228Y-26201D02*
X14153Y-26201D01*
X19488Y-24783D02*
X19468Y-24803D01*
X13228Y-26201D02*
X12598Y-26201D01*
X12598Y-26201D02*
X12480Y-26318D01*
X15521Y-21171D02*
X14950Y-21171D01*
X14271Y-20492D02*
X14271Y-19921D01*
X14950Y-21171D02*
X14271Y-20492D01*
X14271Y-19921D02*
X14271Y-17775D01*
X14271Y-17775D02*
X14429Y-17618D01*
X16535Y-23169D02*
X16535Y-22716D01*
X15846Y-21496D02*
X15521Y-21171D01*
X15846Y-22204D02*
X15846Y-21496D01*
X15944Y-22303D02*
X15846Y-22204D01*
X16122Y-22303D02*
X15944Y-22303D01*
X16535Y-22716D02*
X16122Y-22303D01*
X16763Y-18484D02*
X16763Y-18350D01*
X16763Y-18350D02*
X19799Y-15314D01*
X16535Y-23169D02*
X16535Y-22972D01*
X16535Y-22972D02*
X17047Y-22460D01*
X14763Y-19960D02*
X14763Y-20669D01*
X15039Y-20944D02*
X15748Y-20944D01*
X14763Y-20669D02*
X15039Y-20944D01*
X16535Y-21771D02*
X16535Y-21731D01*
X16535Y-21731D02*
X15748Y-20944D01*
X14763Y-19960D02*
X14763Y-18484D01*
X14763Y-18484D02*
X14763Y-18346D01*
X14763Y-18346D02*
X15452Y-17657D01*
X15452Y-17657D02*
X16456Y-17657D01*
X16456Y-17657D02*
X18799Y-15314D01*
X17165Y-21771D02*
X16535Y-21771D01*
X17224Y-21830D02*
X17165Y-21771D01*
X16673Y-21771D02*
X16535Y-21771D01*
X19547Y-19291D02*
X19547Y-19271D01*
X19566Y-19271D02*
X19547Y-19291D01*
X20866Y-19271D02*
X19566Y-19271D01*
X21220Y-19625D02*
X20866Y-19271D01*
X17716Y-19271D02*
X19547Y-19271D01*
X19547Y-19271D02*
X19606Y-19271D01*
X17283Y-19704D02*
X17716Y-19271D01*
X17283Y-20551D02*
X17283Y-19704D01*
X16751Y-21082D02*
X17283Y-20551D01*
X16200Y-21082D02*
X16751Y-21082D01*
X15948Y-20830D02*
X16200Y-21082D01*
X15948Y-20751D02*
X15948Y-20830D01*
X15551Y-20354D02*
X15948Y-20751D01*
X15177Y-17381D02*
X16062Y-17381D01*
X22618Y-16043D02*
X23385Y-15275D01*
X20866Y-16043D02*
X22618Y-16043D01*
X20472Y-16437D02*
X20866Y-16043D01*
X16062Y-17381D02*
X17224Y-16220D01*
X17763Y-18484D02*
X17893Y-18484D01*
X18996Y-17381D02*
X20393Y-17381D01*
X17893Y-18484D02*
X18996Y-17381D01*
X22224Y-18011D02*
X22263Y-17972D01*
X22263Y-17972D02*
X23870Y-17972D01*
X23870Y-17972D02*
X24350Y-17492D01*
X9000Y-19748D02*
X9000Y-15275D01*
X9921Y-20669D02*
X9000Y-19748D01*
X16535Y-20354D02*
X16535Y-19712D01*
X16535Y-19712D02*
X17763Y-18484D01*
X13228Y-25610D02*
X14311Y-25492D01*
X13149Y-25531D02*
X13228Y-25610D01*
X11968Y-22953D02*
X11968Y-23248D01*
X12539Y-22381D02*
X11968Y-22953D01*
X16948Y-26181D02*
X16771Y-26181D01*
X17578Y-25728D02*
X16948Y-26181D01*
X15925Y-26161D02*
X15059Y-26161D01*
X15944Y-26181D02*
X15925Y-26161D01*
X15688Y-24861D02*
X15059Y-24861D01*
X15964Y-25137D02*
X15688Y-24861D01*
X22480Y-21358D02*
X21023Y-21358D01*
X22677Y-21555D02*
X22480Y-21358D01*
X18897Y-21791D02*
X18897Y-23838D01*
X19330Y-21358D02*
X18897Y-21791D01*
X21023Y-21358D02*
X19330Y-21358D01*
X21043Y-21338D02*
X21023Y-21358D01*
X14960Y-21909D02*
X15413Y-21909D01*
X15629Y-22618D02*
X16003Y-22618D01*
X15354Y-22342D02*
X15629Y-22618D01*
X15354Y-21968D02*
X15354Y-22342D01*
X15413Y-21909D02*
X15354Y-21968D01*
X16102Y-23838D02*
X18897Y-23838D01*
X16003Y-23740D02*
X16102Y-23838D01*
X16003Y-22618D02*
X16003Y-23740D01*
X17835Y-20354D02*
X17835Y-20511D01*
X17835Y-20511D02*
X17204Y-21141D01*
X13268Y-22184D02*
X13268Y-23248D01*
X13484Y-21968D02*
X13268Y-22184D01*
X20767Y-24314D02*
X21243Y-24314D01*
X23897Y-24842D02*
X23897Y-24271D01*
X23700Y-25039D02*
X23897Y-24842D01*
X21968Y-25039D02*
X23700Y-25039D01*
X21243Y-24314D02*
X21968Y-25039D01*
X19504Y-24314D02*
X20767Y-24314D01*
X20767Y-24314D02*
X20770Y-24314D01*
X19504Y-24314D02*
X19507Y-24311D01*
X15810Y-24314D02*
X19504Y-24314D01*
X15472Y-23976D02*
X15810Y-24314D01*
X15472Y-23700D02*
X15472Y-23976D01*
X15196Y-23425D02*
X15472Y-23700D01*
X16771Y-24881D02*
X17637Y-24763D01*
X17637Y-24763D02*
X17696Y-24822D01*
X21122Y-24035D02*
X22775Y-24035D01*
X22775Y-24035D02*
X22972Y-24232D01*
X21161Y-24035D02*
X21122Y-24035D01*
X21122Y-24035D02*
X19527Y-24035D01*
X19527Y-24035D02*
X19448Y-24114D01*
X18700Y-24114D02*
X19448Y-24114D01*
X15964Y-24114D02*
X18700Y-24114D01*
X15787Y-23937D02*
X15964Y-24114D01*
X15787Y-22893D02*
X15787Y-23937D01*
X15748Y-22854D02*
X15787Y-22893D01*
X15177Y-22854D02*
X15748Y-22854D01*
X15157Y-22834D02*
X15177Y-22854D01*
X19763Y-18484D02*
X21200Y-18484D01*
X24385Y-15299D02*
X24385Y-15275D01*
X21200Y-18484D02*
X24385Y-15299D01*
X13799Y-15314D02*
X11039Y-15314D01*
X11039Y-15314D02*
X11000Y-15275D01*
X19507Y-22696D02*
X24192Y-22696D01*
X24507Y-23011D02*
X24507Y-24291D01*
X24192Y-22696D02*
X24507Y-23011D01*
X13799Y-15314D02*
X13799Y-15354D01*
X14547Y-16102D02*
X16102Y-16102D01*
X13799Y-15354D02*
X14547Y-16102D01*
X19507Y-22696D02*
X19606Y-22795D01*
X14625Y-21515D02*
X14625Y-21299D01*
X14625Y-21299D02*
X13661Y-20334D01*
X15196Y-21515D02*
X14625Y-21515D01*
X14625Y-21515D02*
X14586Y-21515D01*
X14566Y-21515D02*
X14566Y-21535D01*
X14586Y-21515D02*
X14566Y-21515D01*
X14566Y-21535D02*
X13641Y-22460D01*
X13828Y-23553D02*
X13828Y-22647D01*
X13828Y-22647D02*
X13641Y-22460D01*
X13759Y-24369D02*
X13228Y-24901D01*
X13759Y-23622D02*
X13759Y-24369D01*
X13897Y-23484D02*
X13828Y-23553D01*
X13828Y-23553D02*
X13759Y-23622D01*
X18307Y-21771D02*
X17835Y-21771D01*
X18661Y-21417D02*
X18307Y-21771D01*
X18661Y-19606D02*
X18661Y-21417D01*
X17874Y-22500D02*
X17874Y-21810D01*
X17874Y-21810D02*
X17835Y-21771D01*
X17835Y-22538D02*
X17835Y-23169D01*
X17874Y-22500D02*
X17835Y-22538D01*
X13641Y-22460D02*
X13917Y-22460D01*
X13838Y-22263D02*
X13641Y-22460D01*
X13661Y-20334D02*
X13838Y-20511D01*
M02*
