M48
;DRILL file {Pcbnew (2013-may-18)-stable} date Mon Sep 19 14:24:52 2016
;FORMAT={-:-/ absolute / inch / decimal}
FMAT,2
INCH,TZ
T1C0.025
T2C0.040
%
G90
G05
M72
T1
X0.9921Y-2.0669
X1.248Y-2.6319
X1.2539Y-2.2382
X1.315Y-2.5531
X1.3484Y-2.1969
X1.3642Y-2.2461
X1.3661Y-2.0335
X1.4311Y-2.5492
X1.4429Y-1.7618
X1.4961Y-2.1909
X1.5157Y-2.2835
X1.5177Y-1.7382
X1.5197Y-2.1516
X1.5197Y-2.3425
X1.5551Y-2.0354
X1.5945Y-2.6181
X1.5965Y-2.5138
X1.6102Y-1.6102
X1.7047Y-2.2461
X1.7205Y-2.1142
X1.7224Y-1.622
X1.7224Y-2.1831
X1.7579Y-2.5728
X1.7697Y-2.4823
X1.7874Y-2.25
X1.8661Y-1.9606
X1.9469Y-2.4803
X1.9508Y-2.2697
X2.0394Y-1.7382
X2.0472Y-1.6437
X2.122Y-1.9626
X2.2224Y-1.8012
X2.2677Y-2.1555
X2.2972Y-2.4232
X2.3898Y-2.4272
X2.4508Y-2.4291
T2
X0.9Y-1.5276
X1.Y-1.5276
X1.1Y-1.5276
X1.3764Y-1.8484
X1.3799Y-1.5315
X1.4764Y-1.8484
X1.4799Y-1.5315
X1.5764Y-1.8484
X1.5799Y-1.5315
X1.6764Y-1.8484
X1.6799Y-1.5315
X1.7764Y-1.8484
X1.7799Y-1.5315
X1.8764Y-1.8484
X1.8799Y-1.5315
X1.9764Y-1.8484
X1.9799Y-1.5315
X2.2386Y-1.5276
X2.3386Y-1.5276
X2.435Y-1.7492
X2.435Y-1.8492
X2.4386Y-1.5276
T0
M30
