G04 (created by PCBNEW (2013-may-18)-stable) date Mon Sep 19 14:24:48 2016*
%MOIN*%
G04 Gerber Fmt 3.4, Leading zero omitted, Abs format*
%FSLAX34Y34*%
G01*
G70*
G90*
G04 APERTURE LIST*
%ADD10C,0.00590551*%
%ADD11R,0.08X0.06*%
%ADD12R,0.0748031X0.0551181*%
%ADD13R,0.0906X0.0197*%
%ADD14R,0.0984X0.0787*%
%ADD15R,0.016X0.06*%
%ADD16R,0.06X0.016*%
%ADD17R,0.0708661X0.0433071*%
%ADD18R,0.05X0.166929*%
G04 APERTURE END LIST*
G54D10*
G54D11*
X22834Y-18622D03*
X22834Y-17322D03*
X21496Y-17342D03*
X21496Y-18642D03*
G54D12*
X15059Y-26161D03*
X16791Y-26161D03*
X16791Y-25216D03*
X15059Y-25216D03*
G54D13*
X11672Y-20649D03*
X11672Y-20964D03*
X11672Y-21279D03*
X11672Y-21594D03*
X11672Y-21909D03*
G54D14*
X11633Y-19527D03*
X9468Y-19527D03*
X11633Y-23031D03*
X9468Y-23031D03*
G54D15*
X16515Y-19659D03*
X16200Y-19659D03*
X15885Y-19659D03*
X15570Y-19659D03*
X15255Y-19659D03*
X14940Y-19659D03*
X16830Y-19659D03*
X17145Y-19659D03*
X17460Y-19659D03*
X17775Y-19659D03*
X18090Y-19659D03*
X16515Y-24159D03*
X16200Y-24159D03*
X15885Y-24159D03*
X15570Y-24159D03*
X15255Y-24159D03*
X14940Y-24159D03*
X16830Y-24159D03*
X17145Y-24159D03*
X17460Y-24159D03*
X17775Y-24159D03*
X18090Y-24159D03*
G54D16*
X14265Y-21909D03*
X18765Y-21909D03*
X14265Y-22224D03*
X18765Y-22224D03*
X18765Y-22539D03*
X14265Y-22539D03*
X14265Y-22854D03*
X18765Y-22854D03*
X18765Y-23169D03*
X14265Y-23169D03*
X14265Y-23484D03*
X18765Y-23484D03*
X18765Y-21594D03*
X14265Y-21594D03*
X14265Y-21279D03*
X18765Y-21279D03*
X18765Y-20964D03*
X14265Y-20964D03*
X14265Y-20649D03*
X18765Y-20649D03*
X18765Y-20334D03*
X14265Y-20334D03*
G54D17*
X10768Y-24752D03*
X13208Y-24752D03*
X10768Y-26192D03*
X13208Y-26192D03*
G54D18*
X23893Y-22971D03*
X23893Y-25531D03*
X22893Y-22971D03*
X22893Y-25531D03*
X21893Y-22971D03*
X21893Y-25531D03*
M02*
