G04 (created by PCBNEW (2013-may-18)-stable) date Mon Sep 19 14:24:48 2016*
%MOIN*%
G04 Gerber Fmt 3.4, Leading zero omitted, Abs format*
%FSLAX34Y34*%
G01*
G70*
G90*
G04 APERTURE LIST*
%ADD10C,0.00590551*%
%ADD11C,0.011811*%
%ADD12C,0.005*%
%ADD13C,0.0001*%
G04 APERTURE END LIST*
G54D10*
G54D11*
X8965Y-17013D02*
X8965Y-17210D01*
X9274Y-17294D02*
X9274Y-17013D01*
X8683Y-17013D01*
X8683Y-17294D01*
X9274Y-17547D02*
X8683Y-17547D01*
X9105Y-17744D01*
X8683Y-17941D01*
X9274Y-17941D01*
X9246Y-18194D02*
X9274Y-18278D01*
X9274Y-18419D01*
X9246Y-18475D01*
X9218Y-18503D01*
X9161Y-18532D01*
X9105Y-18532D01*
X9049Y-18503D01*
X9021Y-18475D01*
X8993Y-18419D01*
X8965Y-18307D01*
X8937Y-18250D01*
X8908Y-18222D01*
X8852Y-18194D01*
X8796Y-18194D01*
X8740Y-18222D01*
X8712Y-18250D01*
X8683Y-18307D01*
X8683Y-18447D01*
X8712Y-18532D01*
X8880Y-19178D02*
X9274Y-19291D01*
X8993Y-19403D01*
X9274Y-19516D01*
X8880Y-19628D01*
X9246Y-20078D02*
X9274Y-20022D01*
X9274Y-19910D01*
X9246Y-19853D01*
X9190Y-19825D01*
X8965Y-19825D01*
X8908Y-19853D01*
X8880Y-19910D01*
X8880Y-20022D01*
X8908Y-20078D01*
X8965Y-20106D01*
X9021Y-20106D01*
X9077Y-19825D01*
X9274Y-20613D02*
X8965Y-20613D01*
X8908Y-20584D01*
X8880Y-20528D01*
X8880Y-20416D01*
X8908Y-20359D01*
X9246Y-20613D02*
X9274Y-20556D01*
X9274Y-20416D01*
X9246Y-20359D01*
X9190Y-20331D01*
X9133Y-20331D01*
X9077Y-20359D01*
X9049Y-20416D01*
X9049Y-20556D01*
X9021Y-20613D01*
X8880Y-20809D02*
X8880Y-21034D01*
X8683Y-20894D02*
X9190Y-20894D01*
X9246Y-20922D01*
X9274Y-20978D01*
X9274Y-21034D01*
X9274Y-21231D02*
X8683Y-21231D01*
X9274Y-21484D02*
X8965Y-21484D01*
X8908Y-21456D01*
X8880Y-21400D01*
X8880Y-21316D01*
X8908Y-21259D01*
X8937Y-21231D01*
X9246Y-21991D02*
X9274Y-21934D01*
X9274Y-21822D01*
X9246Y-21766D01*
X9190Y-21737D01*
X8965Y-21737D01*
X8908Y-21766D01*
X8880Y-21822D01*
X8880Y-21934D01*
X8908Y-21991D01*
X8965Y-22019D01*
X9021Y-22019D01*
X9077Y-21737D01*
X9274Y-22272D02*
X8880Y-22272D01*
X8993Y-22272D02*
X8937Y-22300D01*
X8908Y-22328D01*
X8880Y-22384D01*
X8880Y-22440D01*
X9274Y-23087D02*
X8683Y-23087D01*
X8908Y-23087D02*
X8880Y-23143D01*
X8880Y-23256D01*
X8908Y-23312D01*
X8937Y-23340D01*
X8993Y-23368D01*
X9161Y-23368D01*
X9218Y-23340D01*
X9246Y-23312D01*
X9274Y-23256D01*
X9274Y-23143D01*
X9246Y-23087D01*
X9274Y-23875D02*
X8965Y-23875D01*
X8908Y-23847D01*
X8880Y-23790D01*
X8880Y-23678D01*
X8908Y-23622D01*
X9246Y-23875D02*
X9274Y-23818D01*
X9274Y-23678D01*
X9246Y-23622D01*
X9190Y-23593D01*
X9133Y-23593D01*
X9077Y-23622D01*
X9049Y-23678D01*
X9049Y-23818D01*
X9021Y-23875D01*
X9274Y-24240D02*
X9246Y-24184D01*
X9190Y-24156D01*
X8683Y-24156D01*
X9274Y-24550D02*
X9246Y-24493D01*
X9190Y-24465D01*
X8683Y-24465D01*
X9274Y-24859D02*
X9246Y-24803D01*
X9218Y-24775D01*
X9161Y-24746D01*
X8993Y-24746D01*
X8937Y-24775D01*
X8908Y-24803D01*
X8880Y-24859D01*
X8880Y-24943D01*
X8908Y-24999D01*
X8937Y-25028D01*
X8993Y-25056D01*
X9161Y-25056D01*
X9218Y-25028D01*
X9246Y-24999D01*
X9274Y-24943D01*
X9274Y-24859D01*
X9274Y-25393D02*
X9246Y-25337D01*
X9218Y-25309D01*
X9161Y-25281D01*
X8993Y-25281D01*
X8937Y-25309D01*
X8908Y-25337D01*
X8880Y-25393D01*
X8880Y-25478D01*
X8908Y-25534D01*
X8937Y-25562D01*
X8993Y-25590D01*
X9161Y-25590D01*
X9218Y-25562D01*
X9246Y-25534D01*
X9274Y-25478D01*
X9274Y-25393D01*
X8880Y-25843D02*
X9274Y-25843D01*
X8937Y-25843D02*
X8908Y-25871D01*
X8880Y-25928D01*
X8880Y-26012D01*
X8908Y-26068D01*
X8965Y-26096D01*
X9274Y-26096D01*
X10191Y-16408D02*
X10219Y-16352D01*
X10219Y-16240D01*
X10191Y-16183D01*
X10134Y-16155D01*
X9910Y-16155D01*
X9853Y-16183D01*
X9825Y-16240D01*
X9825Y-16352D01*
X9853Y-16408D01*
X9910Y-16437D01*
X9966Y-16437D01*
X10022Y-16155D01*
X10219Y-16633D02*
X9825Y-16943D01*
X9825Y-16633D02*
X10219Y-16943D01*
X9825Y-17083D02*
X9825Y-17308D01*
X9628Y-17168D02*
X10134Y-17168D01*
X10191Y-17196D01*
X10219Y-17252D01*
X10219Y-17308D01*
X10191Y-17730D02*
X10219Y-17674D01*
X10219Y-17561D01*
X10191Y-17505D01*
X10134Y-17477D01*
X9910Y-17477D01*
X9853Y-17505D01*
X9825Y-17561D01*
X9825Y-17674D01*
X9853Y-17730D01*
X9910Y-17758D01*
X9966Y-17758D01*
X10022Y-17477D01*
X10219Y-18011D02*
X9825Y-18011D01*
X9938Y-18011D02*
X9881Y-18039D01*
X9853Y-18068D01*
X9825Y-18124D01*
X9825Y-18180D01*
X9825Y-18377D02*
X10219Y-18377D01*
X9881Y-18377D02*
X9853Y-18405D01*
X9825Y-18461D01*
X9825Y-18546D01*
X9853Y-18602D01*
X9910Y-18630D01*
X10219Y-18630D01*
X10219Y-19164D02*
X9910Y-19164D01*
X9853Y-19136D01*
X9825Y-19080D01*
X9825Y-18967D01*
X9853Y-18911D01*
X10191Y-19164D02*
X10219Y-19108D01*
X10219Y-18967D01*
X10191Y-18911D01*
X10134Y-18883D01*
X10078Y-18883D01*
X10022Y-18911D01*
X9994Y-18967D01*
X9994Y-19108D01*
X9966Y-19164D01*
X10219Y-19530D02*
X10191Y-19474D01*
X10134Y-19446D01*
X9628Y-19446D01*
X10191Y-20177D02*
X10219Y-20233D01*
X10219Y-20345D01*
X10191Y-20402D01*
X10134Y-20430D01*
X10106Y-20430D01*
X10050Y-20402D01*
X10022Y-20345D01*
X10022Y-20261D01*
X9994Y-20205D01*
X9938Y-20177D01*
X9910Y-20177D01*
X9853Y-20205D01*
X9825Y-20261D01*
X9825Y-20345D01*
X9853Y-20402D01*
X10191Y-20908D02*
X10219Y-20852D01*
X10219Y-20739D01*
X10191Y-20683D01*
X10134Y-20655D01*
X9910Y-20655D01*
X9853Y-20683D01*
X9825Y-20739D01*
X9825Y-20852D01*
X9853Y-20908D01*
X9910Y-20936D01*
X9966Y-20936D01*
X10022Y-20655D01*
X9825Y-21189D02*
X10219Y-21189D01*
X9881Y-21189D02*
X9853Y-21217D01*
X9825Y-21273D01*
X9825Y-21358D01*
X9853Y-21414D01*
X9910Y-21442D01*
X10219Y-21442D01*
X10191Y-21695D02*
X10219Y-21751D01*
X10219Y-21864D01*
X10191Y-21920D01*
X10134Y-21948D01*
X10106Y-21948D01*
X10050Y-21920D01*
X10022Y-21864D01*
X10022Y-21780D01*
X9994Y-21723D01*
X9938Y-21695D01*
X9910Y-21695D01*
X9853Y-21723D01*
X9825Y-21780D01*
X9825Y-21864D01*
X9853Y-21920D01*
X10219Y-22286D02*
X10191Y-22230D01*
X10163Y-22201D01*
X10106Y-22173D01*
X9938Y-22173D01*
X9881Y-22201D01*
X9853Y-22230D01*
X9825Y-22286D01*
X9825Y-22370D01*
X9853Y-22426D01*
X9881Y-22455D01*
X9938Y-22483D01*
X10106Y-22483D01*
X10163Y-22455D01*
X10191Y-22426D01*
X10219Y-22370D01*
X10219Y-22286D01*
X10219Y-22736D02*
X9825Y-22736D01*
X9938Y-22736D02*
X9881Y-22764D01*
X9853Y-22792D01*
X9825Y-22848D01*
X9825Y-22904D01*
X10191Y-23073D02*
X10219Y-23129D01*
X10219Y-23242D01*
X10191Y-23298D01*
X10134Y-23326D01*
X10106Y-23326D01*
X10050Y-23298D01*
X10022Y-23242D01*
X10022Y-23158D01*
X9994Y-23101D01*
X9938Y-23073D01*
X9910Y-23073D01*
X9853Y-23101D01*
X9825Y-23158D01*
X9825Y-23242D01*
X9853Y-23298D01*
X10219Y-24029D02*
X9628Y-24029D01*
X9853Y-24029D02*
X9825Y-24086D01*
X9825Y-24198D01*
X9853Y-24254D01*
X9881Y-24282D01*
X9938Y-24311D01*
X10106Y-24311D01*
X10163Y-24282D01*
X10191Y-24254D01*
X10219Y-24198D01*
X10219Y-24086D01*
X10191Y-24029D01*
X10219Y-24564D02*
X9825Y-24564D01*
X9938Y-24564D02*
X9881Y-24592D01*
X9853Y-24620D01*
X9825Y-24676D01*
X9825Y-24732D01*
X10219Y-25182D02*
X9628Y-25182D01*
X10191Y-25182D02*
X10219Y-25126D01*
X10219Y-25014D01*
X10191Y-24957D01*
X10163Y-24929D01*
X10106Y-24901D01*
X9938Y-24901D01*
X9881Y-24929D01*
X9853Y-24957D01*
X9825Y-25014D01*
X9825Y-25126D01*
X9853Y-25182D01*
X10163Y-25464D02*
X10191Y-25492D01*
X10219Y-25464D01*
X10191Y-25435D01*
X10163Y-25464D01*
X10219Y-25464D01*
X9825Y-26138D02*
X10219Y-26279D01*
X9825Y-26420D01*
X10219Y-26954D02*
X10219Y-26616D01*
X10219Y-26785D02*
X9628Y-26785D01*
X9713Y-26729D01*
X9769Y-26673D01*
X9797Y-26616D01*
G54D12*
X16185Y-22221D02*
X16185Y-21321D01*
X16185Y-21321D02*
X16835Y-21321D01*
X17535Y-22221D02*
X18185Y-22221D01*
X18185Y-22221D02*
X18185Y-21321D01*
X18185Y-21321D02*
X17535Y-21321D01*
X16835Y-22221D02*
X16185Y-22221D01*
X16185Y-23619D02*
X16185Y-22719D01*
X16185Y-22719D02*
X16835Y-22719D01*
X17535Y-23619D02*
X18185Y-23619D01*
X18185Y-23619D02*
X18185Y-22719D01*
X18185Y-22719D02*
X17535Y-22719D01*
X16835Y-23619D02*
X16185Y-23619D01*
X17221Y-26531D02*
X16321Y-26531D01*
X16321Y-26531D02*
X16321Y-25881D01*
X17221Y-25181D02*
X17221Y-24531D01*
X17221Y-24531D02*
X16321Y-24531D01*
X16321Y-24531D02*
X16321Y-25181D01*
X17221Y-25881D02*
X17221Y-26531D01*
X15509Y-26511D02*
X14609Y-26511D01*
X14609Y-26511D02*
X14609Y-25861D01*
X15509Y-25161D02*
X15509Y-24511D01*
X15509Y-24511D02*
X14609Y-24511D01*
X14609Y-24511D02*
X14609Y-25161D01*
X15509Y-25861D02*
X15509Y-26511D01*
X11618Y-23698D02*
X11618Y-22798D01*
X11618Y-22798D02*
X12268Y-22798D01*
X12968Y-23698D02*
X13618Y-23698D01*
X13618Y-23698D02*
X13618Y-22798D01*
X13618Y-22798D02*
X12968Y-22798D01*
X12268Y-23698D02*
X11618Y-23698D01*
X12778Y-24551D02*
X13678Y-24551D01*
X13678Y-24551D02*
X13678Y-25201D01*
X12778Y-25901D02*
X12778Y-26551D01*
X12778Y-26551D02*
X13678Y-26551D01*
X13678Y-26551D02*
X13678Y-25901D01*
X12778Y-25201D02*
X12778Y-24551D01*
X18185Y-19904D02*
X18185Y-20804D01*
X18185Y-20804D02*
X17535Y-20804D01*
X16835Y-19904D02*
X16185Y-19904D01*
X16185Y-19904D02*
X16185Y-20804D01*
X16185Y-20804D02*
X16835Y-20804D01*
X17535Y-19904D02*
X18185Y-19904D01*
G54D13*
G36*
X24626Y-24229D02*
X24617Y-24617D01*
X24608Y-25006D01*
X24250Y-25070D01*
X23893Y-25134D01*
X23775Y-25430D01*
X23656Y-25726D01*
X23862Y-26027D01*
X24068Y-26327D01*
X23788Y-26606D01*
X23508Y-26884D01*
X23213Y-26681D01*
X22919Y-26478D01*
X22764Y-26553D01*
X22676Y-26591D01*
X22615Y-26605D01*
X22599Y-26600D01*
X22584Y-26562D01*
X22547Y-26472D01*
X22493Y-26341D01*
X22425Y-26177D01*
X22348Y-25992D01*
X22340Y-25972D01*
X22090Y-25372D01*
X22182Y-25306D01*
X22365Y-25145D01*
X22487Y-24973D01*
X22552Y-24781D01*
X22567Y-24619D01*
X22538Y-24396D01*
X22451Y-24200D01*
X22311Y-24038D01*
X22125Y-23917D01*
X21993Y-23867D01*
X21783Y-23837D01*
X21581Y-23867D01*
X21397Y-23949D01*
X21240Y-24076D01*
X21119Y-24241D01*
X21045Y-24437D01*
X21024Y-24618D01*
X21052Y-24828D01*
X21137Y-25017D01*
X21285Y-25193D01*
X21330Y-25235D01*
X21497Y-25381D01*
X21240Y-26001D01*
X21161Y-26190D01*
X21090Y-26355D01*
X21031Y-26488D01*
X20987Y-26580D01*
X20964Y-26621D01*
X20962Y-26622D01*
X20922Y-26606D01*
X20851Y-26567D01*
X20832Y-26555D01*
X20752Y-26512D01*
X20694Y-26490D01*
X20687Y-26489D01*
X20646Y-26507D01*
X20564Y-26555D01*
X20455Y-26625D01*
X20385Y-26672D01*
X20267Y-26751D01*
X20166Y-26813D01*
X20098Y-26849D01*
X20079Y-26856D01*
X20041Y-26833D01*
X19967Y-26772D01*
X19870Y-26683D01*
X19781Y-26595D01*
X19522Y-26335D01*
X19723Y-26038D01*
X19805Y-25913D01*
X19871Y-25807D01*
X19913Y-25733D01*
X19923Y-25706D01*
X19911Y-25662D01*
X19879Y-25572D01*
X19833Y-25454D01*
X19814Y-25406D01*
X19705Y-25140D01*
X19339Y-25073D01*
X18974Y-25005D01*
X18965Y-24642D01*
X18964Y-24489D01*
X18968Y-24362D01*
X18977Y-24276D01*
X18987Y-24246D01*
X19031Y-24227D01*
X19126Y-24199D01*
X19257Y-24168D01*
X19374Y-24143D01*
X19730Y-24072D01*
X19845Y-23803D01*
X19961Y-23534D01*
X19744Y-23216D01*
X19527Y-22898D01*
X19794Y-22627D01*
X19902Y-22519D01*
X19993Y-22432D01*
X20058Y-22374D01*
X20084Y-22356D01*
X20119Y-22373D01*
X20197Y-22422D01*
X20306Y-22493D01*
X20418Y-22570D01*
X20729Y-22784D01*
X20968Y-22683D01*
X21085Y-22632D01*
X21179Y-22588D01*
X21231Y-22560D01*
X21235Y-22557D01*
X21252Y-22515D01*
X21278Y-22423D01*
X21308Y-22294D01*
X21335Y-22168D01*
X21408Y-21806D01*
X21797Y-21796D01*
X22187Y-21787D01*
X22209Y-21913D01*
X22227Y-22008D01*
X22253Y-22141D01*
X22283Y-22285D01*
X22286Y-22301D01*
X22341Y-22563D01*
X22607Y-22673D01*
X22873Y-22783D01*
X23179Y-22569D01*
X23305Y-22484D01*
X23411Y-22414D01*
X23485Y-22369D01*
X23514Y-22356D01*
X23548Y-22378D01*
X23617Y-22438D01*
X23712Y-22527D01*
X23806Y-22621D01*
X24070Y-22886D01*
X23853Y-23212D01*
X23636Y-23539D01*
X23738Y-23772D01*
X23791Y-23889D01*
X23835Y-23984D01*
X23863Y-24039D01*
X23865Y-24042D01*
X23908Y-24068D01*
X23997Y-24096D01*
X24098Y-24120D01*
X24242Y-24148D01*
X24387Y-24178D01*
X24467Y-24195D01*
X24626Y-24229D01*
X24626Y-24229D01*
X24626Y-24229D01*
G37*
G54D12*
X17235Y-21893D02*
X17335Y-21750D01*
X17406Y-21893D02*
X17406Y-21593D01*
X17292Y-21593D01*
X17263Y-21607D01*
X17249Y-21621D01*
X17235Y-21650D01*
X17235Y-21693D01*
X17249Y-21721D01*
X17263Y-21735D01*
X17292Y-21750D01*
X17406Y-21750D01*
X16977Y-21693D02*
X16977Y-21893D01*
X17049Y-21578D02*
X17120Y-21793D01*
X16935Y-21793D01*
X17235Y-23290D02*
X17335Y-23147D01*
X17406Y-23290D02*
X17406Y-22990D01*
X17292Y-22990D01*
X17263Y-23005D01*
X17249Y-23019D01*
X17235Y-23047D01*
X17235Y-23090D01*
X17249Y-23119D01*
X17263Y-23133D01*
X17292Y-23147D01*
X17406Y-23147D01*
X17120Y-23019D02*
X17106Y-23005D01*
X17077Y-22990D01*
X17006Y-22990D01*
X16977Y-23005D01*
X16963Y-23019D01*
X16949Y-23047D01*
X16949Y-23076D01*
X16963Y-23119D01*
X17135Y-23290D01*
X16949Y-23290D01*
X16864Y-25481D02*
X16878Y-25467D01*
X16893Y-25424D01*
X16893Y-25395D01*
X16878Y-25352D01*
X16850Y-25324D01*
X16821Y-25310D01*
X16764Y-25295D01*
X16721Y-25295D01*
X16664Y-25310D01*
X16635Y-25324D01*
X16607Y-25352D01*
X16593Y-25395D01*
X16593Y-25424D01*
X16607Y-25467D01*
X16621Y-25481D01*
X16893Y-25767D02*
X16893Y-25595D01*
X16893Y-25681D02*
X16593Y-25681D01*
X16635Y-25652D01*
X16664Y-25624D01*
X16678Y-25595D01*
X15151Y-25461D02*
X15166Y-25447D01*
X15180Y-25404D01*
X15180Y-25376D01*
X15166Y-25333D01*
X15137Y-25304D01*
X15109Y-25290D01*
X15051Y-25276D01*
X15009Y-25276D01*
X14951Y-25290D01*
X14923Y-25304D01*
X14894Y-25333D01*
X14880Y-25376D01*
X14880Y-25404D01*
X14894Y-25447D01*
X14909Y-25461D01*
X14909Y-25576D02*
X14894Y-25590D01*
X14880Y-25618D01*
X14880Y-25690D01*
X14894Y-25718D01*
X14909Y-25733D01*
X14937Y-25747D01*
X14966Y-25747D01*
X15009Y-25733D01*
X15180Y-25561D01*
X15180Y-25747D01*
X12668Y-23340D02*
X12682Y-23355D01*
X12725Y-23369D01*
X12753Y-23369D01*
X12796Y-23355D01*
X12825Y-23326D01*
X12839Y-23298D01*
X12853Y-23240D01*
X12853Y-23198D01*
X12839Y-23140D01*
X12825Y-23112D01*
X12796Y-23083D01*
X12753Y-23069D01*
X12725Y-23069D01*
X12682Y-23083D01*
X12668Y-23098D01*
X12568Y-23069D02*
X12382Y-23069D01*
X12482Y-23183D01*
X12439Y-23183D01*
X12410Y-23198D01*
X12396Y-23212D01*
X12382Y-23240D01*
X12382Y-23312D01*
X12396Y-23340D01*
X12410Y-23355D01*
X12439Y-23369D01*
X12525Y-23369D01*
X12553Y-23355D01*
X12568Y-23340D01*
X13349Y-25501D02*
X13206Y-25401D01*
X13349Y-25329D02*
X13049Y-25329D01*
X13049Y-25444D01*
X13064Y-25472D01*
X13078Y-25486D01*
X13106Y-25501D01*
X13149Y-25501D01*
X13178Y-25486D01*
X13192Y-25472D01*
X13206Y-25444D01*
X13206Y-25329D01*
X13349Y-25786D02*
X13349Y-25615D01*
X13349Y-25701D02*
X13049Y-25701D01*
X13092Y-25672D01*
X13121Y-25644D01*
X13135Y-25615D01*
X17235Y-20475D02*
X17335Y-20332D01*
X17406Y-20475D02*
X17406Y-20175D01*
X17292Y-20175D01*
X17263Y-20190D01*
X17249Y-20204D01*
X17235Y-20232D01*
X17235Y-20275D01*
X17249Y-20304D01*
X17263Y-20318D01*
X17292Y-20332D01*
X17406Y-20332D01*
X17135Y-20175D02*
X16949Y-20175D01*
X17049Y-20290D01*
X17006Y-20290D01*
X16977Y-20304D01*
X16963Y-20318D01*
X16949Y-20347D01*
X16949Y-20418D01*
X16963Y-20447D01*
X16977Y-20461D01*
X17006Y-20475D01*
X17092Y-20475D01*
X17120Y-20461D01*
X17135Y-20447D01*
M02*
