G04 (created by PCBNEW (2013-may-18)-stable) date Mon Sep 19 14:24:48 2016*
%MOIN*%
G04 Gerber Fmt 3.4, Leading zero omitted, Abs format*
%FSLAX34Y34*%
G01*
G70*
G90*
G04 APERTURE LIST*
%ADD10C,0.00590551*%
%ADD11R,0.08X0.06*%
%ADD12R,0.0748031X0.0551181*%
%ADD13R,0.0906X0.0197*%
%ADD14R,0.0984X0.0787*%
%ADD15R,0.016X0.06*%
%ADD16R,0.06X0.016*%
%ADD17R,0.0708661X0.0433071*%
%ADD18R,0.06X0.06*%
%ADD19C,0.06*%
%ADD20R,0.05X0.166929*%
%ADD21C,0.035*%
%ADD22C,0.01*%
G04 APERTURE END LIST*
G54D10*
G54D11*
X22834Y-18622D03*
X22834Y-17322D03*
X21496Y-17342D03*
X21496Y-18642D03*
G54D12*
X15059Y-26161D03*
X16791Y-26161D03*
X16791Y-25216D03*
X15059Y-25216D03*
G54D13*
X11672Y-20649D03*
X11672Y-20964D03*
X11672Y-21279D03*
X11672Y-21594D03*
X11672Y-21909D03*
G54D14*
X11633Y-19527D03*
X9468Y-19527D03*
X11633Y-23031D03*
X9468Y-23031D03*
G54D15*
X16515Y-19659D03*
X16200Y-19659D03*
X15885Y-19659D03*
X15570Y-19659D03*
X15255Y-19659D03*
X14940Y-19659D03*
X16830Y-19659D03*
X17145Y-19659D03*
X17460Y-19659D03*
X17775Y-19659D03*
X18090Y-19659D03*
X16515Y-24159D03*
X16200Y-24159D03*
X15885Y-24159D03*
X15570Y-24159D03*
X15255Y-24159D03*
X14940Y-24159D03*
X16830Y-24159D03*
X17145Y-24159D03*
X17460Y-24159D03*
X17775Y-24159D03*
X18090Y-24159D03*
G54D16*
X14265Y-21909D03*
X18765Y-21909D03*
X14265Y-22224D03*
X18765Y-22224D03*
X18765Y-22539D03*
X14265Y-22539D03*
X14265Y-22854D03*
X18765Y-22854D03*
X18765Y-23169D03*
X14265Y-23169D03*
X14265Y-23484D03*
X18765Y-23484D03*
X18765Y-21594D03*
X14265Y-21594D03*
X14265Y-21279D03*
X18765Y-21279D03*
X18765Y-20964D03*
X14265Y-20964D03*
X14265Y-20649D03*
X18765Y-20649D03*
X18765Y-20334D03*
X14265Y-20334D03*
G54D17*
X10768Y-24752D03*
X13208Y-24752D03*
X10768Y-26192D03*
X13208Y-26192D03*
G54D18*
X11000Y-15275D03*
G54D19*
X10000Y-15275D03*
X9000Y-15275D03*
G54D18*
X24385Y-15275D03*
G54D19*
X23385Y-15275D03*
X22385Y-15275D03*
G54D18*
X24350Y-18492D03*
G54D19*
X24350Y-17492D03*
G54D18*
X13799Y-15314D03*
G54D19*
X14799Y-15314D03*
X15799Y-15314D03*
X16799Y-15314D03*
X17799Y-15314D03*
X18799Y-15314D03*
X19799Y-15314D03*
G54D18*
X19763Y-18484D03*
G54D19*
X18763Y-18484D03*
X17763Y-18484D03*
X16763Y-18484D03*
X15763Y-18484D03*
X14763Y-18484D03*
X13763Y-18484D03*
G54D20*
X23893Y-22971D03*
X23893Y-25531D03*
X22893Y-22971D03*
X22893Y-25531D03*
X21893Y-22971D03*
X21893Y-25531D03*
G54D21*
X19468Y-24803D03*
X12480Y-26318D03*
X14429Y-17618D03*
X17047Y-22460D03*
X17224Y-21830D03*
X21220Y-19625D03*
X15551Y-20354D03*
X20472Y-16437D03*
X17224Y-16220D03*
X15177Y-17381D03*
X20393Y-17381D03*
X22224Y-18011D03*
X9921Y-20669D03*
X14311Y-25492D03*
X13149Y-25531D03*
X12539Y-22381D03*
X17578Y-25728D03*
X15944Y-26181D03*
X15964Y-25137D03*
X22677Y-21555D03*
X14960Y-21909D03*
X17204Y-21141D03*
X13484Y-21968D03*
X23897Y-24271D03*
X15196Y-23425D03*
X17696Y-24822D03*
X22972Y-24232D03*
X15157Y-22834D03*
X24507Y-24291D03*
X16102Y-16102D03*
X19507Y-22696D03*
X15196Y-21515D03*
X18661Y-19606D03*
X17874Y-22500D03*
X13661Y-20334D03*
X13641Y-22460D03*
G54D22*
X11672Y-21279D02*
X14265Y-21279D01*
X14265Y-21279D02*
X14265Y-21279D01*
X10649Y-22145D02*
X10649Y-21220D01*
X10905Y-20964D02*
X11672Y-20964D01*
X10649Y-21220D02*
X10905Y-20964D01*
X11672Y-20964D02*
X14265Y-20964D01*
X14265Y-20964D02*
X14265Y-20964D01*
X19488Y-23346D02*
X21519Y-23346D01*
X21519Y-23346D02*
X21893Y-22971D01*
X19488Y-24783D02*
X19488Y-23346D01*
X19488Y-23346D02*
X19488Y-23310D01*
X19468Y-24803D02*
X19488Y-24783D01*
X15255Y-24159D02*
X15255Y-24645D01*
X13208Y-26122D02*
X13208Y-26192D01*
X14586Y-24744D02*
X13208Y-26122D01*
X15157Y-24744D02*
X14586Y-24744D01*
X15255Y-24645D02*
X15157Y-24744D01*
X12606Y-26192D02*
X13208Y-26192D01*
X12480Y-26318D02*
X12606Y-26192D01*
X14429Y-17618D02*
X14429Y-17578D01*
X14429Y-17578D02*
X15118Y-16889D01*
X15118Y-16889D02*
X15708Y-16889D01*
X15708Y-16889D02*
X16763Y-17944D01*
X16763Y-17944D02*
X16763Y-18484D01*
X16830Y-22677D02*
X16830Y-24159D01*
X17047Y-22460D02*
X16830Y-22677D01*
X17401Y-23326D02*
X17401Y-22007D01*
X17145Y-23582D02*
X17401Y-23326D01*
X17145Y-24159D02*
X17145Y-23582D01*
X17401Y-22007D02*
X17224Y-21830D01*
X21496Y-18642D02*
X22814Y-18642D01*
X22814Y-18642D02*
X22834Y-18622D01*
X21496Y-18642D02*
X21496Y-19350D01*
X21496Y-19350D02*
X21220Y-19625D01*
X15885Y-19659D02*
X15885Y-20019D01*
X15885Y-20019D02*
X15551Y-20354D01*
X12795Y-18287D02*
X12795Y-18070D01*
X12795Y-18070D02*
X10000Y-15275D01*
X16200Y-19192D02*
X16141Y-19192D01*
X16141Y-19192D02*
X16043Y-19094D01*
X16200Y-19659D02*
X16200Y-19192D01*
X13602Y-19094D02*
X12795Y-18287D01*
X12795Y-18287D02*
X12775Y-18267D01*
X16043Y-19094D02*
X13602Y-19094D01*
X17440Y-16437D02*
X20472Y-16437D01*
X17224Y-16220D02*
X17440Y-16437D01*
X16515Y-19659D02*
X16515Y-19015D01*
X15570Y-17381D02*
X15177Y-17381D01*
X16279Y-18090D02*
X15570Y-17381D01*
X16279Y-18779D02*
X16279Y-18090D01*
X16515Y-19015D02*
X16279Y-18779D01*
X20433Y-17342D02*
X21496Y-17342D01*
X20393Y-17381D02*
X20433Y-17342D01*
X21496Y-17342D02*
X21496Y-16165D01*
X21496Y-16165D02*
X22385Y-15275D01*
X21496Y-17342D02*
X21554Y-17342D01*
X21554Y-17342D02*
X22224Y-18011D01*
X11672Y-21909D02*
X11574Y-21909D01*
X9921Y-22125D02*
X9921Y-20669D01*
X10570Y-22775D02*
X9921Y-22125D01*
X10708Y-22775D02*
X10570Y-22775D01*
X11574Y-21909D02*
X10708Y-22775D01*
X18765Y-25250D02*
X21611Y-25250D01*
X21611Y-25250D02*
X21893Y-25531D01*
X15223Y-20492D02*
X15223Y-19691D01*
X15223Y-19691D02*
X15255Y-19659D01*
X14842Y-20873D02*
X14842Y-21062D01*
X15223Y-20492D02*
X14842Y-20873D01*
X14842Y-21062D02*
X16299Y-21062D01*
X16299Y-21062D02*
X17145Y-20216D01*
X17145Y-20216D02*
X17125Y-20216D01*
X14799Y-15314D02*
X14799Y-15527D01*
X15559Y-16279D02*
X17763Y-18484D01*
X15551Y-16279D02*
X15559Y-16279D01*
X14799Y-15527D02*
X15551Y-16279D01*
X17775Y-19659D02*
X17775Y-18496D01*
X17775Y-18496D02*
X17763Y-18484D01*
X15059Y-25216D02*
X15295Y-25216D01*
X15885Y-24626D02*
X15885Y-24159D01*
X15295Y-25216D02*
X15885Y-24626D01*
X15059Y-25216D02*
X15196Y-25216D01*
X16476Y-25846D02*
X16791Y-26161D01*
X15826Y-25846D02*
X16476Y-25846D01*
X15196Y-25216D02*
X15826Y-25846D01*
X16791Y-26161D02*
X17854Y-26161D01*
X17854Y-26161D02*
X18765Y-25250D01*
X18765Y-25250D02*
X18765Y-23484D01*
X17775Y-19659D02*
X17775Y-20216D01*
X17775Y-20216D02*
X17775Y-20216D01*
X17775Y-20216D02*
X17125Y-20216D01*
X13208Y-24752D02*
X13208Y-25472D01*
X14724Y-25216D02*
X15059Y-25216D01*
X14311Y-25492D02*
X14724Y-25216D01*
X13208Y-25472D02*
X13149Y-25531D01*
X14763Y-21594D02*
X14265Y-21594D01*
X14842Y-21515D02*
X14763Y-21594D01*
X14842Y-21062D02*
X14842Y-21515D01*
X12539Y-22381D02*
X12539Y-24083D01*
X12539Y-24083D02*
X13208Y-24752D01*
X12509Y-21909D02*
X12509Y-22352D01*
X12509Y-22352D02*
X12539Y-22381D01*
X11672Y-21909D02*
X12509Y-21909D01*
X12509Y-21909D02*
X12480Y-21909D01*
X12795Y-21594D02*
X14265Y-21594D01*
X12480Y-21909D02*
X12795Y-21594D01*
X24350Y-18492D02*
X24004Y-18492D01*
X24004Y-18492D02*
X22834Y-17322D01*
X16791Y-25216D02*
X17204Y-25216D01*
X17204Y-25216D02*
X17578Y-25728D01*
X15059Y-26161D02*
X15925Y-26161D01*
X15925Y-26161D02*
X15944Y-26181D01*
X16200Y-24159D02*
X16200Y-24783D01*
X15964Y-25019D02*
X15964Y-25137D01*
X16200Y-24783D02*
X15964Y-25019D01*
X22893Y-22971D02*
X22893Y-21771D01*
X22893Y-21771D02*
X22677Y-21555D01*
X14265Y-22854D02*
X14645Y-22854D01*
X14960Y-22539D02*
X14960Y-21909D01*
X14645Y-22854D02*
X14960Y-22539D01*
X18405Y-20334D02*
X18765Y-20334D01*
X17696Y-21043D02*
X18405Y-20334D01*
X17303Y-21043D02*
X17696Y-21043D01*
X17204Y-21141D02*
X17303Y-21043D01*
X14265Y-21909D02*
X13543Y-21909D01*
X13543Y-21909D02*
X13484Y-21968D01*
X23893Y-24267D02*
X23893Y-22971D01*
X23897Y-24271D02*
X23893Y-24267D01*
X14265Y-23484D02*
X15137Y-23484D01*
X15137Y-23484D02*
X15196Y-23425D01*
X16515Y-24685D02*
X16515Y-24159D01*
X16555Y-24724D02*
X16515Y-24685D01*
X17440Y-24724D02*
X16555Y-24724D01*
X17696Y-24822D02*
X17440Y-24724D01*
X22893Y-24311D02*
X22893Y-25531D01*
X22972Y-24232D02*
X22893Y-24311D01*
X14265Y-23169D02*
X14822Y-23169D01*
X14822Y-23169D02*
X15157Y-22834D01*
X23893Y-24905D02*
X23893Y-25531D01*
X24507Y-24291D02*
X23893Y-24905D01*
X15196Y-21515D02*
X16240Y-21515D01*
X16240Y-21515D02*
X17303Y-20452D01*
X19114Y-17834D02*
X19763Y-18484D01*
X17834Y-17834D02*
X19114Y-17834D01*
X16102Y-16102D02*
X17834Y-17834D01*
X18661Y-19606D02*
X18661Y-19586D01*
X18661Y-19586D02*
X19763Y-18484D01*
X18765Y-23169D02*
X19153Y-23169D01*
X19507Y-22814D02*
X19507Y-22696D01*
X19153Y-23169D02*
X19507Y-22814D01*
X15196Y-21515D02*
X15196Y-21555D01*
X15196Y-21555D02*
X15570Y-21929D01*
X18090Y-19659D02*
X18090Y-20255D01*
X18090Y-20255D02*
X17893Y-20452D01*
X17893Y-20452D02*
X17303Y-20452D01*
X15570Y-24159D02*
X15570Y-21929D01*
X18090Y-19659D02*
X18608Y-19659D01*
X18608Y-19659D02*
X18661Y-19606D01*
X18765Y-23169D02*
X17992Y-23169D01*
X17874Y-23051D02*
X17874Y-22500D01*
X17992Y-23169D02*
X17874Y-23051D01*
X13681Y-20649D02*
X13681Y-20354D01*
X13681Y-20354D02*
X13661Y-20334D01*
X13877Y-22224D02*
X14265Y-22224D01*
X13641Y-22460D02*
X13877Y-22224D01*
X14940Y-19659D02*
X14940Y-20492D01*
X14783Y-20649D02*
X14265Y-20649D01*
X14940Y-20492D02*
X14783Y-20649D01*
X11672Y-20649D02*
X13681Y-20649D01*
X13681Y-20649D02*
X14265Y-20649D01*
X14265Y-20649D02*
X14265Y-20649D01*
M02*
